<mxfile host="app.diagrams.net" modified="2021-01-08T13:27:13.833Z" agent="5.0 (Windows NT 10.0; Win64; x64) AppleWebKit/537.36 (KHTML, like Gecko) Chrome/87.0.4280.88 Safari/537.36" etag="HPcmdkqYqHDRVUBI0ws2" version="14.1.8" type="github">
  <diagram id="C5RBs43oDa-KdzZeNtuy" name="Page-1">
    <mxGraphModel dx="1185" dy="662" grid="1" gridSize="10" guides="1" tooltips="1" connect="1" arrows="1" fold="1" page="1" pageScale="1" pageWidth="827" pageHeight="1169" math="0" shadow="0">
      <root>
        <mxCell id="WIyWlLk6GJQsqaUBKTNV-0" />
        <mxCell id="WIyWlLk6GJQsqaUBKTNV-1" parent="WIyWlLk6GJQsqaUBKTNV-0" />
        <mxCell id="w0ampsSdZ3sBVxdebY1X-4" style="edgeStyle=orthogonalEdgeStyle;curved=0;rounded=1;sketch=0;orthogonalLoop=1;jettySize=auto;html=1;exitX=1;exitY=0.5;exitDx=0;exitDy=0;entryX=0;entryY=0.5;entryDx=0;entryDy=0;strokeColor=#09555B;fontColor=#1A1A1A;" edge="1" parent="WIyWlLk6GJQsqaUBKTNV-1" source="w0ampsSdZ3sBVxdebY1X-0" target="w0ampsSdZ3sBVxdebY1X-1">
          <mxGeometry relative="1" as="geometry" />
        </mxCell>
        <mxCell id="w0ampsSdZ3sBVxdebY1X-8" value="调用" style="edgeLabel;html=1;align=center;verticalAlign=middle;resizable=0;points=[];fontColor=#1A1A1A;" vertex="1" connectable="0" parent="w0ampsSdZ3sBVxdebY1X-4">
          <mxGeometry x="0.1333" relative="1" as="geometry">
            <mxPoint x="65" y="-30" as="offset" />
          </mxGeometry>
        </mxCell>
        <mxCell id="w0ampsSdZ3sBVxdebY1X-5" style="edgeStyle=orthogonalEdgeStyle;curved=0;rounded=1;sketch=0;orthogonalLoop=1;jettySize=auto;html=1;exitX=1;exitY=0.5;exitDx=0;exitDy=0;entryX=0;entryY=0.5;entryDx=0;entryDy=0;strokeColor=#09555B;fontColor=#1A1A1A;" edge="1" parent="WIyWlLk6GJQsqaUBKTNV-1" source="w0ampsSdZ3sBVxdebY1X-0" target="w0ampsSdZ3sBVxdebY1X-2">
          <mxGeometry relative="1" as="geometry" />
        </mxCell>
        <mxCell id="w0ampsSdZ3sBVxdebY1X-6" style="edgeStyle=orthogonalEdgeStyle;rounded=1;sketch=0;orthogonalLoop=1;jettySize=auto;html=1;exitX=1;exitY=0.5;exitDx=0;exitDy=0;entryX=0;entryY=0.5;entryDx=0;entryDy=0;strokeColor=#09555B;fontColor=#1A1A1A;" edge="1" parent="WIyWlLk6GJQsqaUBKTNV-1" source="w0ampsSdZ3sBVxdebY1X-0" target="w0ampsSdZ3sBVxdebY1X-3">
          <mxGeometry relative="1" as="geometry" />
        </mxCell>
        <mxCell id="w0ampsSdZ3sBVxdebY1X-0" value="服务消费交易系统" style="whiteSpace=wrap;html=1;fillColor=#FAD9D5;strokeColor=#D0CEE2;fontColor=#1A1A1A;rounded=1;" vertex="1" parent="WIyWlLk6GJQsqaUBKTNV-1">
          <mxGeometry x="50" y="180" width="120" height="60" as="geometry" />
        </mxCell>
        <mxCell id="w0ampsSdZ3sBVxdebY1X-1" value="服务提供者1" style="rounded=1;whiteSpace=wrap;html=1;sketch=0;strokeColor=#D0CEE2;fillColor=#FAD9D5;fontColor=#1A1A1A;align=center;" vertex="1" parent="WIyWlLk6GJQsqaUBKTNV-1">
          <mxGeometry x="440" y="70" width="120" height="60" as="geometry" />
        </mxCell>
        <mxCell id="w0ampsSdZ3sBVxdebY1X-2" value="服务提供者2" style="rounded=1;whiteSpace=wrap;html=1;sketch=0;strokeColor=#D0CEE2;fillColor=#FAD9D5;fontColor=#1A1A1A;align=center;" vertex="1" parent="WIyWlLk6GJQsqaUBKTNV-1">
          <mxGeometry x="440" y="180" width="120" height="60" as="geometry" />
        </mxCell>
        <mxCell id="w0ampsSdZ3sBVxdebY1X-3" value="服务提供者3" style="rounded=1;whiteSpace=wrap;html=1;sketch=0;strokeColor=#D0CEE2;fillColor=#FAD9D5;fontColor=#1A1A1A;align=center;" vertex="1" parent="WIyWlLk6GJQsqaUBKTNV-1">
          <mxGeometry x="440" y="290" width="120" height="60" as="geometry" />
        </mxCell>
        <mxCell id="w0ampsSdZ3sBVxdebY1X-7" value="在eureka之前使用是nginx负载" style="text;html=1;strokeColor=none;fillColor=none;align=left;verticalAlign=middle;whiteSpace=wrap;rounded=0;sketch=0;fontColor=#1A1A1A;" vertex="1" parent="WIyWlLk6GJQsqaUBKTNV-1">
          <mxGeometry x="50" y="350" width="350" height="70" as="geometry" />
        </mxCell>
        <mxCell id="w0ampsSdZ3sBVxdebY1X-10" value="调用" style="edgeLabel;html=1;align=center;verticalAlign=middle;resizable=0;points=[];fontColor=#1A1A1A;" vertex="1" connectable="0" parent="WIyWlLk6GJQsqaUBKTNV-1">
          <mxGeometry x="370" y="210.0000000000001" as="geometry" />
        </mxCell>
        <mxCell id="w0ampsSdZ3sBVxdebY1X-11" value="调用" style="edgeLabel;html=1;align=center;verticalAlign=middle;resizable=0;points=[];fontColor=#1A1A1A;" vertex="1" connectable="0" parent="WIyWlLk6GJQsqaUBKTNV-1">
          <mxGeometry x="370" y="320.0000000000001" as="geometry" />
        </mxCell>
      </root>
    </mxGraphModel>
  </diagram>
</mxfile>
